Coordinates
version=1
nRows=17
nColumns=40
inDegrees=yes

Units are S.I. units (second, meters, Newtons, ...)
Angles are in degrees.

endheader
time	pelvis_tilt	pelvis_list	pelvis_rotation	pelvis_tx	pelvis_ty	pelvis_tz	hip_flexion_r	hip_adduction_r	hip_rotation_r	knee_angle_r	knee_angle_r_beta	ankle_angle_r	subtalar_angle_r	mtp_angle_r	hip_flexion_l	hip_adduction_l	hip_rotation_l	knee_angle_l	knee_angle_l_beta	ankle_angle_l	subtalar_angle_l	mtp_angle_l	lumbar_extension	lumbar_bending	lumbar_rotation	arm_flex_r	arm_add_r	arm_rot_r	elbow_flex_r	pro_sup_r	wrist_flex_r	wrist_dev_r	arm_flex_l	arm_add_l	arm_rot_l	elbow_flex_l	pro_sup_l	wrist_flex_l	wrist_dev_l
     46.52678571	     -6.44994485	     -3.01933533	     15.16018963	      0.86769127	      0.91421470	      0.54506061	      7.92556306	      2.84552404	    -12.57920255	     22.75259921	     22.75259921	     20.33511787	    -12.51585309	      0.57265229	     31.12002179	     -4.06768191	      7.87895502	     19.42518673	     19.42518673	      6.50907310	      0.02660256	      2.76145537	     -9.80641713	      1.50730811	      4.49029137	     57.05941125	    -14.24290434	      7.11493169	     85.34638513	     44.35736719	      0.00000000	      0.00000000	    -13.65091297	     -7.15828352	     19.59697372	     29.19462967	     43.79801324	      0.00000000	      0.00000000
     46.54857143	     -6.60847833	     -3.07893945	     15.23801463	      0.87000873	      0.91366968	      0.54092240	      7.48855970	      2.72033285	    -12.61961262	     22.60018879	     22.60018879	     20.51018480	    -12.52100917	      0.55348041	     31.07104227	     -3.82290566	      7.88293379	     19.66998344	     19.66998344	      6.23014264	      0.00372675	      2.75961270	     -9.39417304	      1.41962447	      4.87335351	     57.53696117	    -13.89212450	      7.17314301	     85.66112882	     44.34853922	      0.00000000	      0.00000000	    -13.95431050	     -7.23743483	     19.62926514	     29.06802634	     43.79021307	      0.00000000	      0.00000000
     46.57035714	     -6.54898560	     -3.23835778	     15.23368253	      0.87276158	      0.91315751	      0.53659226	      6.62434586	      2.69298511	    -13.02149899	     22.09363760	     22.09363760	     20.54278083	    -11.60859599	     -0.03302890	     30.92832098	     -3.67842598	      8.25608757	     20.27992690	     20.27992690	      5.00981962	     -1.31041024	      0.14338805	     -9.40299068	      1.49494623	      4.79014332	     57.88592819	    -13.23705941	      7.26655368	     88.49021146	     44.32238944	      0.00000000	      0.00000000	    -14.23526246	     -7.42234840	     20.91289203	     28.81316780	     43.68017844	      0.00000000	      0.00000000
     46.59214286	     -6.55438632	     -3.29610541	     15.13873139	      0.87558235	      0.91268337	      0.53219565	      5.97959751	      2.58693073	    -12.96850266	     21.90366793	     21.90366793	     20.68225141	    -11.42445114	     -0.07298416	     30.89442603	     -3.51898493	      8.27268248	     21.20030717	     21.20030717	      4.84200532	     -1.93904619	     -0.01957419	     -9.23517919	      1.45269899	      4.90872065	     58.25800249	    -12.73476240	      7.36846275	     89.02773590	     44.30827142	      0.00000000	      0.00000000	    -14.49816330	     -7.57929935	     21.00509585	     28.64040344	     43.66881270	      0.00000000	      0.00000000
     46.61392857	     -6.49551094	     -3.50102865	     15.12129530	      0.87851635	      0.91225393	      0.52757461	      5.26201722	      2.60378547	    -13.18011143	     21.66514725	     21.66514725	     20.73988008	    -10.90163363	     -0.21610490	     30.89830648	     -3.39669254	      8.72315198	     22.29651437	     22.29651437	      4.74143270	     -3.16496241	     -0.20651329	     -9.11939393	      1.63263121	      4.76897526	     58.42799696	    -12.10333274	      7.48170928	     90.06037194	     44.28229100	      0.00000000	      0.00000000	    -14.73896432	     -7.66882909	     21.19763455	     28.44605907	     43.64990066	      0.00000000	      0.00000000
     46.63571429	     -6.48672851	     -3.47404231	     14.99137779	      0.88151183	      0.91219633	      0.52271447	      4.55063033	      2.27374416	    -13.52692640	     21.48245890	     21.48245890	     20.75307220	    -10.05734378	     -0.73822574	     30.63896094	     -2.99684088	      9.35392208	     23.02683640	     23.02683640	      4.46319378	     -4.96807645	     -0.04329028	     -9.04182646	      1.55236099	      5.00683562	     58.16727430	    -11.92941248	      7.38890719	     91.40334521	     44.27315691	      0.00000000	      0.00000000	    -14.75930368	     -7.91012072	     21.64282071	     28.25165635	     43.62464845	      0.00000000	      0.00000000
     46.65750000	     -6.55369073	     -3.48365226	     14.69566097	      0.88458919	      0.91221543	      0.51820856	      3.98806500	      2.05595193	    -13.36463883	     21.33376839	     21.33376839	     20.62149489	     -9.78981553	     -0.71472266	     30.48759904	     -2.84711717	      9.30673912	     23.82751034	     23.82751034	      4.64585985	     -5.58944455	     -0.16043047	     -8.83369290	      1.46389933	      5.27464751	     58.14995671	    -11.62400749	      7.49464100	     91.56266800	     44.26720140	      0.00000000	      0.00000000	    -14.78709041	     -8.16808039	     21.64780953	     28.16577408	     43.62607657	      0.00000000	      0.00000000
     46.67928571	     -6.50256291	     -3.58802072	     14.40667087	      0.88760072	      0.91240680	      0.51366724	      3.26022058	      1.95439770	    -13.29298661	     21.06342308	     21.06342308	     20.54118025	     -9.25861543	     -0.77210906	     30.37286777	     -2.73738721	      9.48953646	     24.86179508	     24.86179508	      4.86802412	     -6.61319741	     -0.14976704	     -8.77092212	      1.50693208	      5.42047442	     58.04161898	    -11.31470724	      7.59392899	     91.78033922	     44.26036170	      0.00000000	      0.00000000	    -14.71300466	     -8.35992562	     21.68053386	     28.10240641	     43.62673971	      0.00000000	      0.00000000
     46.70107143	     -6.55001137	     -3.66629552	     14.19408026	      0.89036573	      0.91283086	      0.50871143	      2.52633078	      1.62384957	    -14.08024104	     20.60738640	     20.60738640	     20.08185556	     -7.67154219	     -2.08988152	     30.17050615	     -2.31553082	     10.46270718	     25.62455591	     25.62455591	      5.69150192	     -8.48018390	      2.16709945	     -8.66095872	      1.61039889	      5.60616128	     57.82124578	    -11.38201144	      7.51446511	     92.47805995	     44.29983778	      0.00000000	      0.00000000	    -14.37356078	     -8.55484456	     22.50794582	     27.79648507	     43.58980502	      0.00000000	      0.00000000
     46.72285714	     -6.56964583	     -3.77383844	     13.83214188	      0.89318726	      0.91331286	      0.50424752	      1.83183731	      1.49507113	    -14.08654459	     20.19334238	     20.19334238	     19.81081732	     -7.01446631	     -2.16459980	     29.92399115	     -2.21624734	     10.60030516	     26.26724042	     26.26724042	      6.15578616	     -9.31814496	      2.37394973	     -8.56424126	      1.71188084	      5.76221514	     57.76033740	    -11.24039223	      7.62620632	     92.32333861	     44.31102653	      0.00000000	      0.00000000	    -14.15848454	     -8.77592999	     22.59205183	     27.79829578	     43.59402359	      0.00000000	      0.00000000
     46.74464286	     -6.64056791	     -3.82836680	     13.43841623	      0.89580246	      0.91385952	      0.49980093	      1.20398636	      1.24593525	    -14.24490372	     19.80729832	     19.80729832	     19.49730430	     -6.04526143	     -2.41911786	     29.63532147	     -2.03862067	     10.80054446	     26.75626259	     26.75626259	      6.71402768	    -10.18578489	      2.86813738	     -8.44273393	      1.72966116	      5.93549059	     57.71060824	    -11.19740840	      7.78091083	     91.86244372	     44.33293957	      0.00000000	      0.00000000	    -13.85750563	     -9.00183593	     22.70608423	     27.79506588	     43.59886236	      0.00000000	      0.00000000
     46.76642857	     -6.79671136	     -3.78327842	     13.00410861	      0.89814408	      0.91435494	      0.49542925	      0.75007128	      0.80757156	    -14.53534550	     19.57850257	     19.57850257	     19.07019405	     -4.94610351	     -3.24643909	     29.38808197	     -1.77666272	     10.81997087	     27.18380646	     27.18380646	      7.61029770	    -10.79411152	      4.17178191	     -8.28167763	      1.62894045	      5.91022526	     57.78510420	    -10.98722304	      8.13907731	     90.86431400	     44.38527374	      0.00000000	      0.00000000	    -13.54194037	     -9.28321931	     23.06826764	     27.68744911	     43.59695327	      0.00000000	      0.00000000
     46.78821429	     -6.96111058	     -3.82343869	     12.55253958	      0.90033835	      0.91471973	      0.49124082	      0.38312689	      0.55653614	    -14.36250239	     19.39685847	     19.39685847	     18.75143813	     -4.59058137	     -3.24718527	     29.18109217	     -1.67870866	     10.62600279	     27.54932602	     27.54932602	      8.12186467	    -11.20597137	      4.14097484	     -8.13737695	      1.63661108	      6.04237888	     57.59365564	    -10.94703872	      8.22300849	     90.51405049	     44.39710742	      0.00000000	      0.00000000	    -13.13971331	     -9.48990245	     23.05746192	     27.77702313	     43.61051882	      0.00000000	      0.00000000
     46.81000000	     -7.06628772	     -3.86089890	     12.13416168	      0.90242844	      0.91516141	      0.48700052	     -0.07706620	      0.29253319	    -14.37059157	     19.14599684	     19.14599684	     18.40132829	     -3.94795098	     -3.41566802	     28.87352785	     -1.56597997	     10.49963955	     27.83977793	     27.83977793	      8.70901023	    -11.60347537	      4.29532763	     -8.02646340	      1.68616237	      6.24108212	     57.39696168	    -11.16122427	      8.24222401	     89.56864766	     44.43268796	      0.00000000	      0.00000000	    -12.64208084	     -9.73194450	     23.06751508	     27.87274808	     43.62670369	      0.00000000	      0.00000000
     46.83178571	     -7.19075470	     -3.85194785	     11.73340759	      0.90430506	      0.91555295	      0.48276000	     -0.46775838	     -0.08527364	    -14.61078821	     18.98784542	     18.98784542	     17.99027701	     -3.03874957	     -4.02421948	     28.53992709	     -1.40382446	     10.34020366	     28.03520900	     28.03520900	      9.41372382	    -11.87713906	      4.83796226	     -7.86590029	      1.68281576	      6.37724794	     57.37242289	    -11.36679066	      8.21702095	     87.68433890	     44.50765692	      0.00000000	      0.00000000	    -12.06330394	     -9.97802697	     23.18584459	     27.91404051	     43.64069057	      0.00000000	      0.00000000
     46.85357143	     -7.32119607	     -3.86061306	     11.31369910	      0.90612578	      0.91580095	      0.47865629	     -0.70121904	     -0.39126505	    -14.43451612	     19.07118270	     19.07118270	     17.70848850	     -2.83908969	     -4.08242729	     28.24849672	     -1.28627370	     10.09432943	     28.27032130	     28.27032130	      9.92527248	    -12.16557391	      4.75677174	     -7.80610921	      1.72410084	      6.25583880	     56.83324301	    -11.28990275	      8.30940380	     87.20944144	     44.52005071	      0.00000000	      0.00000000	    -11.57517881	    -10.19369487	     23.16109824	     28.01169639	     43.65509397	      0.00000000	      0.00000000
     46.87535714	     -7.43945524	     -3.79085000	     10.92657352	      0.90775871	      0.91604074	      0.47446730	     -0.94569796	     -0.87073900	    -14.68512970	     19.14183738	     19.14183738	     16.91637404	     -2.24924889	     -5.95293836	     27.94624976	     -1.08173140	      9.79889749	     28.54023917	     28.54023917	     10.96831012	    -12.15074407	      6.07130802	     -7.58244443	      1.75274054	      5.81549725	     56.92019780	    -10.53332087	      8.01531175	     83.30985016	     44.69006247	      0.00000000	      0.00000000	    -11.21533134	    -10.41809560	     23.53222243	     28.04135811	     43.67388303	      0.00000000	      0.00000000
